#!OML:ASF F:\VICON\USERDATA\INSTALL\rory3\rory3.ASF
:FULLY-SPECIFIED
:DEGREES
1845
root -11.2433 17.7406 -1.792 539.902 37.2035 -900.587
lowerback 9.94089 2.78735 1.81435
upperback 0.440463 3.96182 0.101773
thorax -4.99322 1.93297 -1.46756
lowerneck -20.0504 -6.36983 -11.5008
upperneck 33.0413 -6.51922 7.68353
head 15.7646 -2.61875 4.15272
rclavicle 1.54555e-014 -7.15625e-015
rhumerus -26.6512 -4.82284 -85.8972
rradius 39.7228
rwrist 2.55915
rhand -17.8675 9.02919
rfingers 7.12502
rthumb 8.39824 -20.7838
lclavicle 1.54555e-014 -7.15625e-015
lhumerus -38.3427 7.62062 82.6433
lradius 25.4945
lwrist -11.945
lhand -16.3996 24.9331
lfingers 7.12502
lthumb 9.81459 54.6843
rfemur 3.39534 1.66322 30.1056
rtibia 20.3933
rfoot -15.1033 5.56193
rtoes 14.2211
lfemur -22.5928 -6.38848 -16.0501
ltibia 22.9939
lfoot -6.16024 -0.570256
ltoes -15.8895
1846
root -11.1832 17.7399 -1.89334 539.961 37.6479 -900.555
lowerback 9.92417 2.82463 1.84375
upperback 0.441808 4.01422 0.104536
thorax -4.97884 1.95835 -1.48712
lowerneck -20.2116 -6.37022 -11.4175
upperneck 33.0963 -6.51305 7.59761
head 15.8194 -2.61845 4.10205
rclavicle -8.97264e-014 3.29983e-014
rhumerus -26.5716 -4.81382 -85.9404
rradius 39.6802
rwrist 2.54644
rhand -17.7412 9.17555
rfingers 7.12502
rthumb 8.52013 -20.6326
lclavicle -8.97264e-014 3.29983e-014
lhumerus -38.0609 7.605 82.6268
lradius 25.5538
lwrist -11.9621
lhand -16.3243 25.1619
lfingers 7.12502
lthumb 9.88724 54.9097
rfemur 3.92397 1.79241 30.0589
rtibia 20.1358
rfoot -15.067 5.86239
rtoes 13.2316
lfemur -22.5575 -6.54889 -16.1299
ltibia 21.174
lfoot -6.43015 -0.516962
ltoes -14.7073
1847
root -11.1221 17.7464 -1.99723 540.027 38.1023 -900.497
lowerback 9.96569 2.82555 1.91138
upperback 0.370415 4.02368 0.117317
thorax -5.07289 1.95857 -1.51783
lowerneck -20.3411 -6.35738 -11.3459
upperneck 33.2394 -6.46815 7.48612
head 15.9047 -2.60423 4.0554
rclavicle -2.36057e-014 1.15295e-014
rhumerus -26.6528 -4.6429 -86.0052
rradius 39.5878
rwrist 2.48243
rhand -17.9298 9.49255
rfingers 7.12502
rthumb 8.33805 -20.3229
lclavicle -2.36057e-014 1.15295e-014
lhumerus -37.884 7.60991 82.5608
lradius 25.4846
lwrist -12.114
lhand -16.5126 24.7567
lfingers 7.12502
lthumb 9.70562 54.5131
rfemur 4.44132 1.78845 29.9553
rtibia 19.8939
rfoot -15.0777 6.48946
rtoes 13.3768
lfemur -22.4957 -6.40345 -16.2802
ltibia 19.6008
lfoot -6.78694 -0.945336
ltoes -14.2145
1848
root -11.0594 17.7511 -2.10159 540.145 38.4956 -900.407
lowerback 9.87461 2.83802 2.04842
upperback 0.353379 4.05365 0.131115
thorax -5.03026 1.97058 -1.57901
lowerneck -20.3863 -6.39496 -11.5346
upperneck 33.2934 -6.52155 7.68301
head 15.9688 -2.62286 4.16756
rclavicle -9.74045e-015 -1.43125e-014
rhumerus -26.6237 -4.71162 -85.9762
rradius 39.3863
rwrist 2.57078
rhand -18.0855 9.24925
rfingers 7.12502
rthumb 8.18786 -20.5721
lclavicle -9.74045e-015 -1.43125e-014
lhumerus -37.6212 7.57877 82.5565
lradius 25.4203
lwrist -12.2811
lhand -16.7833 24.0536
lfingers 7.12502
lthumb 9.44447 53.822
rfemur 4.95075 1.59995 29.8452
rtibia 19.5916
rfoot -15.0765 7.0417
rtoes 12.4953
lfemur -22.6064 -6.06512 -16.4998
ltibia 18.3799
lfoot -7.10398 -1.76193
ltoes -12.6247
1849
root -10.9982 17.737 -2.20277 540.287 38.8019 -900.248
lowerback 9.78993 2.8015 2.19811
upperback 0.369289 4.02312 0.191662
thorax -4.96156 1.95433 -1.58979
lowerneck -20.4058 -6.39513 -11.6982
upperneck 33.2782 -6.50615 7.79819
head 15.9781 -2.62423 4.249
rclavicle -5.35725e-014 6.75868e-015
rhumerus -26.6338 -4.59922 -85.9558
rradius 39.3055
rwrist 2.57299
rhand -18.0588 9.25992
rfingers 7.12502
rthumb 8.21354 -20.5604
lclavicle -5.35725e-014 6.75868e-015
lhumerus -37.3766 7.61371 82.5929
lradius 25.6672
lwrist -11.9392
lhand -16.7962 24.439
lfingers 7.12502
lthumb 9.43199 54.2079
rfemur 5.50795 1.48018 29.8965
rtibia 19.2693
rfoot -15.111 7.12779
rtoes 9.27485
lfemur -22.8532 -5.6912 -16.6976
ltibia 17.4814
lfoot -7.34675 -2.66124
ltoes -10.8398
1850
root -10.9327 17.7204 -2.30782 540.326 39.1572 -900.149
lowerback 9.72069 2.77719 2.24488
upperback 0.415914 3.99783 0.252163
thorax -4.87621 1.944 -1.54397
lowerneck -20.4909 -6.33752 -11.5954
upperneck 33.252 -6.39712 7.61867
head 15.9557 -2.59498 4.16965
rclavicle -5.01931e-015 2.38542e-015
rhumerus -26.6534 -4.40705 -85.9801
rradius 39.2282
rwrist 2.41358
rhand -18.0652 9.5231
rfingers 7.12502
rthumb 8.20739 -20.2975
lclavicle -5.01931e-015 2.38542e-015
lhumerus -37.1146 7.50432 82.6897
lradius 25.8996
lwrist -11.6016
lhand -17.0815 25.0415
lfingers 7.12502
lthumb 9.1567 54.8227
rfemur 6.16206 1.5432 29.9457
rtibia 18.9559
rfoot -15.1399 7.04384
rtoes 5.86936
lfemur -23.0036 -5.1296 -17.0119
ltibia 16.8578
lfoot -7.57274 -3.70098
ltoes -11.6495
